<?xml version="1.0" standalone="no"?>
<!DOCTYPE svg PUBLIC "-//W3C//DTD SVG 20010904//EN"
 "http://www.w3.org/TR/2001/REC-SVG-20010904/DTD/svg10.dtd">
<svg version="1.0" xmlns="http://www.w3.org/2000/svg"
 width="512.000000pt" height="512.000000pt" viewBox="0 0 512.000000 512.000000"
 preserveAspectRatio="xMidYMid meet">

<g transform="translate(0.000000,512.000000) scale(0.100000,-0.100000)"
fill="#000000" stroke="none">
<path d="M0 2560 l0 -2560 2560 0 2560 0 0 2560 0 2560 -2560 0 -2560 0 0
-2560z m2360 802 c216 -668 293 -892 305 -892 14 0 22 19 256 632 l144 378
185 -3 185 -2 7 -580 c6 -530 25 -959 53 -1207 l6 -48 -182 0 -182 0 8 348 c6
315 -4 776 -21 972 l-6 65 -157 -435 -158 -435 -64 -6 c-35 -4 -110 -7 -166
-8 l-101 -1 -149 443 -148 442 -8 -165 c-11 -219 -13 -898 -3 -1077 l8 -143
-168 0 -167 0 6 103 c26 411 37 710 42 1162 3 286 8 522 11 524 7 7 408 69
416 64 4 -2 26 -61 48 -131z m-1196 -12 c104 -26 167 -62 231 -132 76 -82 99
-145 98 -273 0 -87 -4 -111 -31 -182 -50 -134 -122 -232 -329 -448 -103 -108
-228 -238 -277 -290 l-88 -95 33 0 c19 1 203 11 409 24 206 13 377 22 379 20
4 -4 -37 -346 -42 -350 -1 -1 -96 2 -212 8 -116 5 -380 7 -591 4 l-380 -6 21
139 22 138 289 334 c331 381 361 419 404 511 24 51 31 80 31 129 1 108 -51
149 -187 149 -128 0 -309 -55 -456 -140 -55 -32 -68 -36 -68 -22 1 9 15 94 33
187 l32 170 50 27 c57 31 210 83 305 103 98 20 233 19 324 -5z m3196 -685 l0
-205 189 0 c105 0 192 -3 194 -7 2 -5 0 -61 -6 -125 l-10 -118 -184 0 -183 0
0 -194 0 -193 -62 -6 c-35 -3 -96 -9 -135 -13 l-73 -7 0 207 0 206 -188 0
c-104 0 -191 2 -193 4 -2 3 0 58 6 123 l10 118 183 3 182 2 0 194 0 194 98 7
c53 3 102 8 107 10 6 2 22 4 38 4 l27 1 0 -205z"/>
</g>
</svg>
